<svg xmlns="http://www.w3.org/2000/svg" xmlns:xlink="http://www.w3.org/1999/xlink" contentStyleType="text/css" height="884.7px" preserveAspectRatio="none" style="width:1451px;height:884px;background:#FFFFFF;" version="1.1" viewBox="0 0 1451 884" width="1451.7px" zoomAndPan="magnify"><defs/><g><!--cluster productworld--><g id="cluster_productworld"><path d="M7.65,5.4 L89.0411,5.4 A3.375,3.375 0 0 1 91.2911,7.65 L97.5911,25.2888 L1443.15,25.2888 A2.25,2.25 0 0 1 1445.4,27.5388 L1445.4,859.95 A2.25,2.25 0 0 1 1443.15,862.2 L7.65,862.2 A2.25,2.25 0 0 1 5.4,859.95 L5.4,7.65 A2.25,2.25 0 0 1 7.65,5.4 " fill="none" style="stroke:#000000;stroke-width:1.35;"/><line style="stroke:#000000;stroke-width:1.35;" x1="5.4" x2="97.5911" y1="25.2888" y2="25.2888"/><text fill="#000000" font-family="sans-serif" font-size="12.6" font-weight="bold" lengthAdjust="spacing" textLength="80.4911" x="9" y="19.0187">productworld</text></g><!--cluster base--><g id="cluster_base"><path d="M850.95,44.1 L880.5691,44.1 A3.375,3.375 0 0 1 882.8191,46.35 L889.1191,63.9888 L1421.55,63.9888 A2.25,2.25 0 0 1 1423.8,66.2388 L1423.8,667.35 A2.25,2.25 0 0 1 1421.55,669.6 L850.95,669.6 A2.25,2.25 0 0 1 848.7,667.35 L848.7,46.35 A2.25,2.25 0 0 1 850.95,44.1 " fill="none" style="stroke:#000000;stroke-width:1.35;"/><line style="stroke:#000000;stroke-width:1.35;" x1="848.7" x2="889.1191" y1="63.9888" y2="63.9888"/><text fill="#000000" font-family="sans-serif" font-size="12.6" font-weight="bold" lengthAdjust="spacing" textLength="28.7191" x="852.3" y="57.7187">base</text></g><!--cluster base--><g id="cluster_base"><path d="M872.55,303.3 L902.1691,303.3 A3.375,3.375 0 0 1 904.4191,305.55 L910.7191,323.1888 L1399.95,323.1888 A2.25,2.25 0 0 1 1402.2,325.4388 L1402.2,645.75 A2.25,2.25 0 0 1 1399.95,648 L872.55,648 A2.25,2.25 0 0 1 870.3,645.75 L870.3,305.55 A2.25,2.25 0 0 1 872.55,303.3 " fill="none" style="stroke:#000000;stroke-width:1.35;"/><line style="stroke:#000000;stroke-width:1.35;" x1="870.3" x2="910.7191" y1="323.1888" y2="323.1888"/><text fill="#000000" font-family="sans-serif" font-size="12.6" font-weight="bold" lengthAdjust="spacing" textLength="28.7191" x="873.9" y="316.9187">base</text></g><!--cluster customer--><g id="cluster_customer"><path d="M1047.15,82.8 L1104.7685,82.8 A3.375,3.375 0 0 1 1107.0185,85.05 L1113.3185,102.6888 L1269.45,102.6888 A2.25,2.25 0 0 1 1271.7,104.9388 L1271.7,271.35 A2.25,2.25 0 0 1 1269.45,273.6 L1047.15,273.6 A2.25,2.25 0 0 1 1044.9,271.35 L1044.9,85.05 A2.25,2.25 0 0 1 1047.15,82.8 " fill="none" style="stroke:#000000;stroke-width:1.35;"/><line style="stroke:#000000;stroke-width:1.35;" x1="1044.9" x2="1113.3185" y1="102.6888" y2="102.6888"/><text fill="#000000" font-family="sans-serif" font-size="12.6" font-weight="bold" lengthAdjust="spacing" textLength="56.7185" x="1048.5" y="96.4187">customer</text></g><!--cluster products--><g id="cluster_products"><path d="M29.25,515.7 L141.4521,515.7 A3.375,3.375 0 0 1 143.7021,517.95 L150.0021,535.5888 L824.85,535.5888 A2.25,2.25 0 0 1 827.1,537.8388 L827.1,838.35 A2.25,2.25 0 0 1 824.85,840.6 L29.25,840.6 A2.25,2.25 0 0 1 27,838.35 L27,517.95 A2.25,2.25 0 0 1 29.25,515.7 " fill="none" style="stroke:#000000;stroke-width:1.35;"/><line style="stroke:#000000;stroke-width:1.35;" x1="27" x2="150.0021" y1="535.5888" y2="535.5888"/><text fill="#000000" font-family="sans-serif" font-size="12.6" font-weight="bold" lengthAdjust="spacing" textLength="111.3021" x="30.6" y="529.3187">products.products</text></g><!--class NewOrder--><g id="elem_NewOrder"><rect codeLine="3" fill="#F1F1F1" height="115.6438" id="NewOrder" rx="2.25" ry="2.25" style="stroke:#181818;stroke-width:0.45;" width="283.2504" x="885.15" y="334.8"/><ellipse cx="994.2434" cy="349.2" fill="#ADD1B2" rx="9.9" ry="9.9" style="stroke:#181818;stroke-width:0.9;"/><path d="M992.134,349.0594 Q992.134,350.7469 992.6543,351.6609 Q993.1746,352.5609 994.2152,352.5609 Q995.4246,352.5609 996.0152,350.7469 L998.0543,351.1266 Q997.0559,354.3047 994.2012,354.3047 Q992.0918,354.3047 990.9949,352.9688 Q989.898,351.6328 989.898,349.0594 Q989.898,343.9125 994.1309,343.9125 Q995.523,343.9125 996.4512,344.6438 Q997.3934,345.375 997.8434,346.8234 L995.8043,347.3156 Q995.5934,346.5281 995.1574,346.0922 Q994.7215,345.6422 994.159,345.6422 Q992.134,345.6422 992.134,349.0594 Z " fill="#000000"/><text fill="#000000" font-family="sans-serif" font-size="12.6" lengthAdjust="spacing" textLength="57.4137" x="1012.6934" y="353.7743">NewOrder</text><line style="stroke:#181818;stroke-width:0.45;" x1="886.05" x2="1167.5004" y1="363.6" y2="363.6"/><text fill="#000000" font-family="sans-serif" font-size="12.6" lengthAdjust="spacing" textLength="83.352" x="890.55" y="379.0187">order_id: None</text><text fill="#000000" font-family="sans-serif" font-size="12.6" lengthAdjust="spacing" textLength="92.4513" x="890.55" y="393.5074">product: Product</text><text fill="#000000" font-family="sans-serif" font-size="12.6" lengthAdjust="spacing" textLength="81.254" x="890.55" y="407.9962">quantity: None</text><line style="stroke:#181818;stroke-width:0.45;" x1="886.05" x2="1167.5004" y1="414.2663" y2="414.2663"/><text fill="#000000" font-family="sans-serif" font-size="12.6" lengthAdjust="spacing" textLength="272.4504" x="890.55" y="429.685">__init__(self, order_id, Product product, quantity)</text><text fill="#000000" font-family="sans-serif" font-size="12.6" lengthAdjust="spacing" textLength="221.3121" x="890.55" y="444.1737">int calculate_total(self, Product product)</text></g><!--class Order--><g id="elem_Order"><rect codeLine="10" fill="#F1F1F1" height="115.6438" id="Order" rx="2.25" ry="2.25" style="stroke:#181818;stroke-width:0.45;" width="283.2504" x="1103.85" y="518.4"/><ellipse cx="1225.5464" cy="532.8" fill="#ADD1B2" rx="9.9" ry="9.9" style="stroke:#181818;stroke-width:0.9;"/><path d="M1223.4371,532.6594 Q1223.4371,534.3469 1223.9574,535.2609 Q1224.4777,536.1609 1225.5183,536.1609 Q1226.7277,536.1609 1227.3183,534.3469 L1229.3574,534.7266 Q1228.3589,537.9047 1225.5042,537.9047 Q1223.3949,537.9047 1222.298,536.5688 Q1221.2011,535.2328 1221.2011,532.6594 Q1221.2011,527.5125 1225.4339,527.5125 Q1226.8261,527.5125 1227.7542,528.2438 Q1228.6964,528.975 1229.1464,530.4234 L1227.1074,530.9156 Q1226.8964,530.1281 1226.4605,529.6922 Q1226.0246,529.2422 1225.4621,529.2422 Q1223.4371,529.2422 1223.4371,532.6594 Z " fill="#000000"/><text fill="#000000" font-family="sans-serif" font-size="12.6" lengthAdjust="spacing" textLength="32.2075" x="1243.9964" y="537.3743">Order</text><line style="stroke:#181818;stroke-width:0.45;" x1="1104.75" x2="1386.2004" y1="547.2" y2="547.2"/><text fill="#000000" font-family="sans-serif" font-size="12.6" lengthAdjust="spacing" textLength="83.352" x="1109.25" y="562.6187">order_id: None</text><text fill="#000000" font-family="sans-serif" font-size="12.6" lengthAdjust="spacing" textLength="79.1499" x="1109.25" y="577.1074">product: None</text><text fill="#000000" font-family="sans-serif" font-size="12.6" lengthAdjust="spacing" textLength="81.254" x="1109.25" y="591.5962">quantity: None</text><line style="stroke:#181818;stroke-width:0.45;" x1="1104.75" x2="1386.2004" y1="597.8663" y2="597.8663"/><text fill="#000000" font-family="sans-serif" font-size="12.6" lengthAdjust="spacing" textLength="272.4504" x="1109.25" y="613.285">__init__(self, order_id, Product product, quantity)</text><text fill="#000000" font-family="sans-serif" font-size="12.6" lengthAdjust="spacing" textLength="125.3602" x="1109.25" y="627.7737">int calculate_total(self)</text></g><!--class Product--><g id="elem_Product"><rect codeLine="17" fill="#F1F1F1" height="101.1551" id="Product" rx="2.25" ry="2.25" style="stroke:#181818;stroke-width:0.45;" width="187.2984" x="884.7" y="525.6"/><ellipse cx="952.8126" cy="540" fill="#A9DCDF" rx="9.9" ry="9.9" style="stroke:#181818;stroke-width:0.9;"/><path d="M957.4954,544.05 L955.3017,544.05 L954.6126,541.5891 L951.2095,541.5891 L950.5204,544.05 L948.3126,544.05 L951.6173,533.9672 L954.1907,533.9672 L957.4954,544.05 Z M952.911,535.3313 Q952.8407,535.6406 952.686,536.2734 Q952.5313,536.8922 951.6735,539.9297 L954.1485,539.9297 Q953.2767,536.85 953.122,536.2453 Q952.9673,535.6406 952.911,535.3313 Z " fill="#000000"/><text fill="#000000" font-family="sans-serif" font-size="12.6" font-style="italic" lengthAdjust="spacing" textLength="43.4232" x="971.2626" y="544.5743">Product</text><line style="stroke:#181818;stroke-width:0.45;" x1="885.6" x2="1071.0984" y1="554.4" y2="554.4"/><text fill="#000000" font-family="sans-serif" font-size="12.6" lengthAdjust="spacing" textLength="95.9643" x="890.1" y="569.8187">product_id: None</text><text fill="#000000" font-family="sans-serif" font-size="12.6" lengthAdjust="spacing" textLength="68.6417" x="890.1" y="584.3074">name: None</text><line style="stroke:#181818;stroke-width:0.45;" x1="885.6" x2="1071.0984" y1="590.5775" y2="590.5775"/><text fill="#000000" font-family="sans-serif" font-size="12.6" lengthAdjust="spacing" textLength="176.4984" x="890.1" y="605.9962">__init__(self, product_id, name)</text><text fill="#000000" font-family="sans-serif" font-size="12.6" lengthAdjust="spacing" textLength="79.8328" x="890.1" y="620.485">get_price(self)</text></g><!--class Methods--><g id="elem_Methods"><rect codeLine="46" fill="#F1F1F1" height="72.1775" id="Methods" rx="2.25" ry="2.25" style="stroke:#181818;stroke-width:0.45;" width="148.3479" x="1200.15" y="356.4"/><ellipse cx="1246.3356" cy="370.8" fill="#E3664A" rx="9.9" ry="9.9" style="stroke:#181818;stroke-width:0.9;"/><path d="M1250.7231,369.2109 Q1250.7231,371.4328 1250.1044,372.7547 Q1249.4856,374.0766 1248.445,374.0766 Q1247.3763,374.0766 1247.3763,372.8953 L1247.3763,372.8391 L1247.3903,372.5438 L1247.3481,372.5438 Q1247.0669,373.2469 1246.5888,373.6688 Q1246.1247,374.0766 1245.5903,374.0766 Q1244.7888,374.0766 1244.3388,373.3313 Q1243.9028,372.5719 1243.9028,371.1938 Q1243.9028,369.9984 1244.2685,368.9297 Q1244.6341,367.8609 1245.2528,367.2422 Q1245.8716,366.6234 1246.645,366.6234 Q1247.1372,366.6234 1247.4466,366.9469 Q1247.77,367.2703 1247.8685,367.9172 L1247.9106,367.9172 L1248.1497,366.7922 L1249.1622,366.7922 L1248.431,370.575 Q1248.1216,372.15 1248.1216,372.6563 Q1248.1216,372.9094 1248.1919,373.0359 Q1248.2763,373.1625 1248.4872,373.1625 Q1249.0497,373.1625 1249.3872,372.0938 Q1249.7388,371.0109 1249.7388,369.225 Q1249.7388,367.2 1248.9372,365.9625 Q1248.1497,364.7109 1246.8419,364.7109 Q1245.731,364.7109 1244.9013,365.5266 Q1244.0716,366.3281 1243.6216,367.7766 Q1243.1856,369.225 1243.1856,371.0109 Q1243.1856,373.3172 1244.0294,374.6672 Q1244.8872,376.0031 1246.3497,376.0031 Q1247.0528,376.0031 1247.6997,375.7359 Q1248.3466,375.4828 1249.106,374.8219 L1249.6403,375.5531 Q1248.7825,376.2984 1247.9669,376.6219 Q1247.1653,376.9594 1246.2794,376.9594 Q1245.0419,376.9594 1244.0997,376.2281 Q1243.1716,375.5109 1242.6653,374.1469 Q1242.1591,372.7828 1242.1591,371.0109 Q1242.1591,368.8734 1242.7356,367.2281 Q1243.3122,365.5688 1244.381,364.6688 Q1245.4497,363.7688 1246.856,363.7688 Q1248.0372,363.7688 1248.9091,364.4438 Q1249.781,365.1188 1250.245,366.3563 Q1250.7231,367.5938 1250.7231,369.2109 Z M1247.4747,368.9859 Q1247.4747,367.5375 1246.6591,367.5375 Q1246.2091,367.5375 1245.8435,368.0578 Q1245.4778,368.5641 1245.2669,369.4219 Q1245.07,370.2797 1245.07,371.1797 Q1245.07,373.1344 1245.7591,373.1344 Q1246.2935,373.1344 1246.6731,372.4875 Q1247.0528,371.8406 1247.2638,370.6734 Q1247.4747,369.5063 1247.4747,368.9859 Z " fill="#000000"/><text fill="#000000" font-family="sans-serif" font-size="12.6" lengthAdjust="spacing" textLength="48.3267" x="1264.7856" y="375.3743">Methods</text><line style="stroke:#181818;stroke-width:0.45;" x1="1201.05" x2="1347.5979" y1="385.2" y2="385.2"/><line style="stroke:#181818;stroke-width:0.45;" x1="1201.05" x2="1347.5979" y1="392.4" y2="392.4"/><text fill="#000000" font-family="sans-serif" font-size="12.6" lengthAdjust="spacing" textLength="137.5479" x="1205.55" y="407.8187">fancyFunc(order: Order')</text><text fill="#000000" font-family="sans-serif" font-size="12.6" lengthAdjust="spacing" textLength="66.5191" x="1205.55" y="422.3074">funkyFunc()</text></g><!--class Customer--><g id="elem_Customer"><rect codeLine="23" fill="#F1F1F1" height="144.6214" id="Customer" rx="2.25" ry="2.25" style="stroke:#181818;stroke-width:0.45;" width="197.0868" x="1059.75" y="114.3"/><ellipse cx="1127.1612" cy="128.7" fill="#ADD1B2" rx="9.9" ry="9.9" style="stroke:#181818;stroke-width:0.9;"/><path d="M1125.0519,128.5594 Q1125.0519,130.2469 1125.5722,131.1609 Q1126.0925,132.0609 1127.1331,132.0609 Q1128.3425,132.0609 1128.9331,130.2469 L1130.9722,130.6266 Q1129.9737,133.8047 1127.119,133.8047 Q1125.0097,133.8047 1123.9128,132.4688 Q1122.8159,131.1328 1122.8159,128.5594 Q1122.8159,123.4125 1127.0487,123.4125 Q1128.4409,123.4125 1129.369,124.1438 Q1130.3112,124.875 1130.7612,126.3234 L1128.7222,126.8156 Q1128.5112,126.0281 1128.0753,125.5922 Q1127.6394,125.1422 1127.0769,125.1422 Q1125.0519,125.1422 1125.0519,128.5594 Z " fill="#000000"/><text fill="#000000" font-family="sans-serif" font-size="12.6" lengthAdjust="spacing" textLength="54.6144" x="1145.6112" y="133.2743">Customer</text><line style="stroke:#181818;stroke-width:0.45;" x1="1060.65" x2="1255.9368" y1="143.1" y2="143.1"/><text fill="#000000" font-family="sans-serif" font-size="12.6" lengthAdjust="spacing" textLength="105.7526" x="1065.15" y="158.5187">customer_id: None</text><text fill="#000000" font-family="sans-serif" font-size="12.6" lengthAdjust="spacing" textLength="68.6417" x="1065.15" y="173.0074">name: None</text><text fill="#000000" font-family="sans-serif" font-size="12.6" lengthAdjust="spacing" textLength="72.8376" x="1065.15" y="187.4962">orders: None</text><text fill="#000000" font-family="sans-serif" font-size="12.6" lengthAdjust="spacing" textLength="136.5451" x="1065.15" y="201.985">newestOrder: NewOrder</text><line style="stroke:#181818;stroke-width:0.45;" x1="1060.65" x2="1255.9368" y1="208.2551" y2="208.2551"/><text fill="#000000" font-family="sans-serif" font-size="12.6" lengthAdjust="spacing" textLength="186.2868" x="1065.15" y="223.6737">__init__(self, customer_id, name)</text><text fill="#000000" font-family="sans-serif" font-size="12.6" lengthAdjust="spacing" textLength="157.5677" x="1065.15" y="238.1625">add_order(self, Order order)</text><text fill="#000000" font-family="sans-serif" font-size="12.6" lengthAdjust="spacing" textLength="130.9772" x="1065.15" y="252.6513">int get_total_spent(self)</text></g><!--class DigitalProduct--><g id="elem_DigitalProduct"><rect codeLine="32" fill="#F1F1F1" height="101.1551" id="DigitalProduct" rx="2.25" ry="2.25" style="stroke:#181818;stroke-width:0.45;" width="275.5415" x="252.9" y="725.4"/><ellipse cx="347.6276" cy="739.8" fill="#ADD1B2" rx="9.9" ry="9.9" style="stroke:#181818;stroke-width:0.9;"/><path d="M345.5183,739.6594 Q345.5183,741.3469 346.0386,742.2609 Q346.5589,743.1609 347.5995,743.1609 Q348.8089,743.1609 349.3995,741.3469 L351.4386,741.7266 Q350.4401,744.9047 347.5854,744.9047 Q345.4761,744.9047 344.3792,743.5688 Q343.2823,742.2328 343.2823,739.6594 Q343.2823,734.5125 347.5151,734.5125 Q348.9073,734.5125 349.8354,735.2438 Q350.7776,735.975 351.2276,737.4234 L349.1886,737.9156 Q348.9776,737.1281 348.5417,736.6922 Q348.1058,736.2422 347.5433,736.2422 Q345.5183,736.2422 345.5183,739.6594 Z " fill="#000000"/><text fill="#000000" font-family="sans-serif" font-size="12.6" lengthAdjust="spacing" textLength="78.4362" x="366.0776" y="744.3743">DigitalProduct</text><line style="stroke:#181818;stroke-width:0.45;" x1="253.8" x2="527.5415" y1="754.2" y2="754.2"/><text fill="#000000" font-family="sans-serif" font-size="12.6" lengthAdjust="spacing" textLength="64.4335" x="258.3" y="769.6187">price: None</text><text fill="#000000" font-family="sans-serif" font-size="12.6" lengthAdjust="spacing" textLength="84.0533" x="258.3" y="784.1074">discount: None</text><line style="stroke:#181818;stroke-width:0.45;" x1="253.8" x2="527.5415" y1="790.3775" y2="790.3775"/><text fill="#000000" font-family="sans-serif" font-size="12.6" lengthAdjust="spacing" textLength="264.7415" x="258.3" y="805.7962">__init__(self, product_id, name, price, discount)</text><text fill="#000000" font-family="sans-serif" font-size="12.6" lengthAdjust="spacing" textLength="96.641" x="258.3" y="820.285">int get_price(self)</text></g><!--class PhysicalProduct--><g id="elem_PhysicalProduct"><rect codeLine="38" fill="#F1F1F1" height="86.6663" id="PhysicalProduct" rx="2.25" ry="2.25" style="stroke:#181818;stroke-width:0.45;" width="221.6101" x="559.8" y="732.6"/><ellipse cx="621.6095" cy="747" fill="#ADD1B2" rx="9.9" ry="9.9" style="stroke:#181818;stroke-width:0.9;"/><path d="M619.5001,746.8594 Q619.5001,748.5469 620.0205,749.4609 Q620.5408,750.3609 621.5814,750.3609 Q622.7908,750.3609 623.3814,748.5469 L625.4205,748.9266 Q624.422,752.1047 621.5673,752.1047 Q619.458,752.1047 618.3611,750.7688 Q617.2642,749.4328 617.2642,746.8594 Q617.2642,741.7125 621.497,741.7125 Q622.8892,741.7125 623.8173,742.4438 Q624.7595,743.175 625.2095,744.6234 L623.1705,745.1156 Q622.9595,744.3281 622.5236,743.8922 Q622.0876,743.4422 621.5251,743.4422 Q619.5001,743.4422 619.5001,746.8594 Z " fill="#000000"/><text fill="#000000" font-family="sans-serif" font-size="12.6" lengthAdjust="spacing" textLength="90.341" x="640.0595" y="751.5743">PhysicalProduct</text><line style="stroke:#181818;stroke-width:0.45;" x1="560.7" x2="780.5101" y1="761.4" y2="761.4"/><text fill="#000000" font-family="sans-serif" font-size="12.6" lengthAdjust="spacing" textLength="64.4335" x="565.2" y="776.8187">price: None</text><line style="stroke:#181818;stroke-width:0.45;" x1="560.7" x2="780.5101" y1="783.0888" y2="783.0888"/><text fill="#000000" font-family="sans-serif" font-size="12.6" lengthAdjust="spacing" textLength="210.8101" x="565.2" y="798.5074">__init__(self, product_id, name, price)</text><text fill="#000000" font-family="sans-serif" font-size="12.6" lengthAdjust="spacing" textLength="79.8328" x="565.2" y="812.9962">get_price(self)</text></g><!--class Productfactory--><g id="elem_Productfactory"><rect codeLine="43" fill="#F1F1F1" height="57.6888" id="Productfactory" rx="2.25" ry="2.25" style="stroke:#181818;stroke-width:0.45;" width="346.718" x="465.75" y="547.2"/><ellipse cx="594.6662" cy="561.6" fill="#ADD1B2" rx="9.9" ry="9.9" style="stroke:#181818;stroke-width:0.9;"/><path d="M592.5568,561.4594 Q592.5568,563.1469 593.0771,564.0609 Q593.5975,564.9609 594.6381,564.9609 Q595.8475,564.9609 596.4381,563.1469 L598.4771,563.5266 Q597.4787,566.7047 594.624,566.7047 Q592.5146,566.7047 591.4178,565.3688 Q590.3209,564.0328 590.3209,561.4594 Q590.3209,556.3125 594.5537,556.3125 Q595.9459,556.3125 596.874,557.0438 Q597.8162,557.775 598.2662,559.2234 L596.2271,559.7156 Q596.0162,558.9281 595.5803,558.4922 Q595.1443,558.0422 594.5818,558.0422 Q592.5568,558.0422 592.5568,561.4594 Z " fill="#000000"/><text fill="#000000" font-family="sans-serif" font-size="12.6" lengthAdjust="spacing" textLength="81.2355" x="613.1162" y="566.1743">Productfactory</text><line style="stroke:#181818;stroke-width:0.45;" x1="466.65" x2="811.568" y1="576" y2="576"/><line style="stroke:#181818;stroke-width:0.45;" x1="466.65" x2="811.568" y1="583.2" y2="583.2"/><text fill="#000000" font-family="sans-serif" font-size="12.6" lengthAdjust="spacing" textLength="335.918" x="471.15" y="598.6187">PhysicalProduct | DigitalProduct create_product(self, str pid)</text></g><!--class Methods--><g id="elem_Methods"><rect codeLine="50" fill="#F1F1F1" height="57.6888" id="Methods" rx="2.25" ry="2.25" style="stroke:#181818;stroke-width:0.45;" width="392.153" x="41.4" y="547.2"/><ellipse cx="209.4882" cy="561.6" fill="#E3664A" rx="9.9" ry="9.9" style="stroke:#181818;stroke-width:0.9;"/><path d="M213.8757,560.0109 Q213.8757,562.2328 213.2569,563.5547 Q212.6382,564.8766 211.5976,564.8766 Q210.5288,564.8766 210.5288,563.6953 L210.5288,563.6391 L210.5429,563.3438 L210.5007,563.3438 Q210.2194,564.0469 209.7413,564.4688 Q209.2772,564.8766 208.7429,564.8766 Q207.9413,564.8766 207.4913,564.1313 Q207.0554,563.3719 207.0554,561.9938 Q207.0554,560.7984 207.421,559.7297 Q207.7866,558.6609 208.4054,558.0422 Q209.0241,557.4234 209.7976,557.4234 Q210.2897,557.4234 210.5991,557.7469 Q210.9226,558.0703 211.021,558.7172 L211.0632,558.7172 L211.3022,557.5922 L212.3147,557.5922 L211.5835,561.375 Q211.2741,562.95 211.2741,563.4563 Q211.2741,563.7094 211.3444,563.8359 Q211.4288,563.9625 211.6397,563.9625 Q212.2022,563.9625 212.5397,562.8938 Q212.8913,561.8109 212.8913,560.025 Q212.8913,558 212.0897,556.7625 Q211.3022,555.5109 209.9944,555.5109 Q208.8835,555.5109 208.0538,556.3266 Q207.2241,557.1281 206.7741,558.5766 Q206.3382,560.025 206.3382,561.8109 Q206.3382,564.1172 207.1819,565.4672 Q208.0397,566.8031 209.5022,566.8031 Q210.2054,566.8031 210.8522,566.5359 Q211.4991,566.2828 212.2585,565.6219 L212.7929,566.3531 Q211.9351,567.0984 211.1194,567.4219 Q210.3179,567.7594 209.4319,567.7594 Q208.1944,567.7594 207.2522,567.0281 Q206.3241,566.3109 205.8179,564.9469 Q205.3116,563.5828 205.3116,561.8109 Q205.3116,559.6734 205.8882,558.0281 Q206.4647,556.3688 207.5335,555.4688 Q208.6022,554.5688 210.0085,554.5688 Q211.1897,554.5688 212.0616,555.2438 Q212.9335,555.9188 213.3976,557.1563 Q213.8757,558.3938 213.8757,560.0109 Z M210.6272,559.7859 Q210.6272,558.3375 209.8116,558.3375 Q209.3616,558.3375 208.996,558.8578 Q208.6304,559.3641 208.4194,560.2219 Q208.2226,561.0797 208.2226,561.9797 Q208.2226,563.9344 208.9116,563.9344 Q209.446,563.9344 209.8257,563.2875 Q210.2054,562.6406 210.4163,561.4734 Q210.6272,560.3063 210.6272,559.7859 Z " fill="#000000"/><text fill="#000000" font-family="sans-serif" font-size="12.6" lengthAdjust="spacing" textLength="48.3267" x="227.9382" y="566.1743">Methods</text><line style="stroke:#181818;stroke-width:0.45;" x1="42.3" x2="432.653" y1="576" y2="576"/><line style="stroke:#181818;stroke-width:0.45;" x1="42.3" x2="432.653" y1="583.2" y2="583.2"/><text fill="#000000" font-family="sans-serif" font-size="12.6" lengthAdjust="spacing" textLength="381.353" x="46.8" y="598.6187">PhysicalProduct | DigitalProduct create_product(self: None, pid: 'str')</text></g><!--reverse link NewOrder to Product--><g id="link_NewOrder_Product"><path codeLine="53" d="M997.7675,460.3775 C990.1895,484.5515 986.076,502.182 981.207,525.51 " fill="none" id="NewOrder-backto-Product" style="stroke:#181818;stroke-width:0.9;"/><polygon fill="#181818" points="1000.998,450.072,995.9476,454.1479,997.7675,460.3775,1002.8179,456.3016,1000.998,450.072" style="stroke:#181818;stroke-width:0.9;"/></g><!--reverse link NewOrder to Product--><g id="link_NewOrder_Product"><path codeLine="57" d="M1021.9221,455.3475 C1016.6391,479.5215 1010.196,502.182 1002.519,525.51 " fill="none" id="NewOrder-backto-Product-1" style="stroke:#181818;stroke-width:0.9;"/><polygon fill="#181818" points="1023.075,450.072,1017.8286,457.2166,1022.1142,454.4682,1024.8626,458.7538,1023.075,450.072" style="stroke:#181818;stroke-width:0.9;"/></g><!--reverse link Customer to NewOrder--><g id="link_Customer_NewOrder"><path codeLine="54" d="M1106.3061,268.3138 C1090.4121,292.9738 1078.677,311.175 1063.629,334.512 " fill="none" id="Customer-backto-NewOrder" style="stroke:#181818;stroke-width:0.9;"/><polygon fill="#181818" points="1112.157,259.236,1106.2056,261.8246,1106.3061,268.3138,1112.2575,265.7252,1112.157,259.236" style="stroke:#181818;stroke-width:0.9;"/></g><!--reverse link Product to DigitalProduct--><g id="link_Product_DigitalProduct"><path codeLine="55" d="M902.8495,635.7929 C876.7225,654.2789 858.402,664.407 827.1,676.8 C819.693,679.734 552.24,723.501 544.5,725.4 C539.181,726.705 533.79,728.1 528.345,729.558 " fill="none" id="Product-backto-DigitalProduct" style="stroke:#181818;stroke-width:0.9;"/><polygon fill="none" points="916.074,626.436,899.7305,631.3848,905.9685,640.2011,916.074,626.436" style="stroke:#181818;stroke-width:0.9;"/></g><!--reverse link Product to PhysicalProduct--><g id="link_Product_PhysicalProduct"><path codeLine="56" d="M890.4255,635.4876 C866.0265,651.6426 852.237,660.627 827.1,676.8 C798.363,695.286 766.44,715.374 738.945,732.519 " fill="none" id="Product-backto-PhysicalProduct" style="stroke:#181818;stroke-width:0.9;"/><polygon fill="none" points="903.933,626.544,887.4443,630.9851,893.4067,639.9901,903.933,626.544" style="stroke:#181818;stroke-width:0.9;"/></g><!--reverse link Methods to Order--><g id="link_Methods_Order"><path codeLine="58" d="M1267.9308,434.1206 C1263.9078,459.5366 1259.244,488.979 1254.609,518.238 " fill="none" id="Methods-backto-Order" style="stroke:#181818;stroke-width:0.9;"/><polygon fill="#181818" points="1268.775,428.787,1263.9529,436.2246,1268.0715,433.2317,1271.0644,437.3502,1268.775,428.787" style="stroke:#181818;stroke-width:0.9;"/><text fill="#000000" font-family="sans-serif" font-size="11.7" lengthAdjust="spacing" textLength="98.2046" x="1260.9" y="488.8745">used by fancyFunc</text></g><!--reverse link Customer to Order--><g id="link_Customer_Order"><path codeLine="59" d="M1262.0023,216.9612 C1302.5383,233.5122 1340.496,257.166 1364.4,296.1 C1409.823,370.08 1407.474,414.558 1367.1,491.4 C1361.916,501.264 1354.986,510.192 1347.057,518.22 " fill="none" id="Customer-backto-Order" style="stroke:#181818;stroke-width:0.9;"/><polygon fill="#181818" points="1257.003,214.92,1263.1412,221.3148,1261.1691,216.621,1265.8628,214.649,1257.003,214.92" style="stroke:#181818;stroke-width:0.9;"/></g><!--reverse link Productfactory to PhysicalProduct--><g id="link_Productfactory_PhysicalProduct"><path codeLine="60" d="M644.2944,610.1779 C649.5864,643.4419 657.63,693.981 663.759,732.555 " fill="none" id="Productfactory-backto-PhysicalProduct" style="stroke:#181818;stroke-width:0.9;"/><polygon fill="#181818" points="643.446,604.845,641.1633,613.41,644.153,609.2891,648.2739,612.2788,643.446,604.845" style="stroke:#181818;stroke-width:0.9;"/></g><!--reverse link Productfactory to DigitalProduct--><g id="link_Productfactory_DigitalProduct"><path codeLine="61" d="M624.4816,609.666 C611.4856,636.675 590.949,672.381 560.7,698.4 C549.045,708.435 535.851,717.372 522.099,725.283 " fill="none" id="Productfactory-backto-DigitalProduct" style="stroke:#181818;stroke-width:0.9;"/><polygon fill="#181818" points="626.823,604.8,620.0669,610.5381,624.8718,608.855,626.5549,613.6599,626.823,604.8" style="stroke:#181818;stroke-width:0.9;"/></g><!--reverse link Methods to PhysicalProduct--><g id="link_Methods_PhysicalProduct"><path codeLine="62" d="M301.1488,607.2157 C343.7098,627.4297 397.845,652.932 450,676.8 C490.482,695.322 535.347,715.365 573.975,732.483 " fill="none" id="Methods-backto-PhysicalProduct" style="stroke:#181818;stroke-width:0.9;"/><polygon fill="#181818" points="296.271,604.899,302.0433,611.6259,300.3358,606.8296,305.1322,605.1221,296.271,604.899" style="stroke:#181818;stroke-width:0.9;"/><text fill="#000000" font-family="sans-serif" font-size="11.7" lengthAdjust="spacing" textLength="122.2787" x="492.3" y="695.8745">used by create_product</text></g><!--reverse link Methods to DigitalProduct--><g id="link_Methods_DigitalProduct"><path codeLine="63" d="M239.2526,610.3494 C241.6196,636.7284 248.094,670.797 268.2,698.4 C275.427,708.327 284.373,717.255 294.111,725.202 " fill="none" id="Methods-backto-DigitalProduct" style="stroke:#181818;stroke-width:0.9;"/><polygon fill="#181818" points="238.77,604.971,235.9083,613.3603,239.1722,609.453,243.0795,612.7168,238.77,604.971" style="stroke:#181818;stroke-width:0.9;"/><text fill="#000000" font-family="sans-serif" font-size="11.7" lengthAdjust="spacing" textLength="122.2787" x="269.1" y="695.8745">used by create_product</text></g><text fill="#888888" font-family="sans-serif" font-size="9" lengthAdjust="spacing" textLength="54.5361" x="674.0227" y="876.0419">Generated by</text><text fill="#888888" font-family="sans-serif" font-size="9" font-style="italic" lengthAdjust="spacing" textLength="34.0181" x="731.0593" y="876.0419">py2puml</text><!--SRC=[jPRFSjiW4CRlUWfwSj9HufaUFRwrqqmEJVq638QLmqG25PRnQ9A-Un52aYrNVvAw5mz2xCTlFtQHFvM67Gf6d8L7XM0A498Xx1X_OGUm96EvXIJXEREMb4OBn_6eJIxkzyn2y_C4nvz6W26l2I6w7b4fDkH9A_0JCMX3Tit0J_roJA74gbj3gLGIARsna6Tffv6sCQr8seNU-YYfa72MSvTxOeeQMHu51c6toU_f39RWn-V_p5wZihr5mtpa97Ch_zf3dd8hLi0OOxyy3Ujge0CWBOtaq66CxSwTHLs0kVyQ1m6XdHrb2CRO_XqSmM8mti_52hf4FP7jMPaGDCZ5HStnXPdMspgTu2gr9IYSIYe-s7xmJHwa3prts5lJmGjfkNOAbngSDl5f5tYAEUlw9U3kkRAIJn4k0rfyy7z1Q0QPhrDjga0mf7eZ0oEvWRhQeqP4yxLEIYb2uIlbZmobLcD5_mFmMGiRjikOujLtf_YDRgeebC6gpYbpwgLvDILxcTIf_4UoQUnFwtmsPEKpMzNxprsRd-_kPfeyMTA54p9TVytS9TkteSPSSrn3SU3qh5_RZ_XrLZuJ2l56yjz3GVPLNsIBZc1EDtbVKst_qRjhR31rtECDz7xotlBplhhYZkUfZ6wOQUt_2947K63yV5YoNfVLbz8L-Nhz1m00]--></g></svg>